<svg id="Layer_1" data-name="Layer 1" xmlns="http://www.w3.org/2000/svg" version="1.1" viewBox="0 0 123.705 73.99">
  <path d="M70.823,28.285h-18.131l-1.412,1.324v3.21h1.412v6.343h18.131v-6.343h1.412v-3.21l-1.412-1.324ZM62.701,36.407h-1.886v-1.887h1.886v1.887Z"
  fill="black"></path>
  <polygon fill="black" points="46.112 40.134 44.567 41.524 44.567 42.732 57.133 42.732 57.672 40.134 46.112 40.134"></polygon>
  <polygon fill="black" points="78.948 41.524 77.404 40.134 65.844 40.134 66.383 42.732 78.948 42.732 78.948 41.524"></polygon>
  <polygon fill="black" points="41.876 43.642 41.857 43.658 56.94 43.658 56.943 43.642 41.876 43.642"></polygon>
  <polygon fill="black" points="66.572 43.642 66.576 43.658 81.659 43.658 81.64 43.642 66.572 43.642"></polygon>
  <polygon fill="black" points="56.94 43.658 41.857 43.658 39.625 45.661 39.625 47.387 56.165 47.387 56.94 43.658"></polygon>
  <polygon fill="black" points="83.891 45.661 81.659 43.658 66.576 43.658 67.35 47.387 83.891 47.387 83.891 45.661"></polygon>
  <polygon fill="black" points="55.974 48.308 36.051 48.308 33.447 50.918 33.447 53.278 54.942 53.278 55.974 48.308"></polygon>
  <polygon fill="black" points="90.069 50.918 87.465 48.308 67.542 48.308 68.574 53.278 90.069 53.278 90.069 50.918"></polygon>
  <polygon fill="black" points="25.46 57.646 25.46 61.149 53.307 61.149 54.75 54.199 28.77 54.199 25.46 57.646"></polygon>
  <polygon fill="black" points="98.056 61.149 98.056 57.646 94.746 54.199 68.765 54.199 70.209 61.149 98.056 61.149"></polygon>
  <polygon fill="black" points="19.664 62.076 15.267 66.491 15.267 70.978 51.265 70.978 53.114 62.076 19.664 62.076"></polygon>
  <polygon fill="black" points="70.402 62.076 72.251 70.978 108.249 70.978 108.249 66.491 103.852 62.076 70.402 62.076"></polygon>
  <polygon fill="black" points="65.336 43.658 65.155 42.732 64.649 40.134 58.866 40.134 58.36 42.732 58.18 43.658 52.857 70.978 70.659 70.978 65.336 43.658"></polygon>
  <g>
    <g>
      <path fill="black" d="M17.121,56.086l-2.057,1-1-2.057-9.171-3.169-2.057,1-1-2.057,1.056-3.057,7.171-.945-5.058-5.17,1.056-3.057,2.057-1,1,2.057,9.171,3.169,2.057-1,1,2.057-1.056,3.057-2.057,1-1-2.057-6.114-2.113,3.794,3.877-.528,1.529-5.378.708,6.114,2.113,2.057-1,1,2.057-1.056,3.057Z"></path>
      <path fill="black" d="M23.668,40.279l-2.251.403-.402-2.252-7.962-5.547-2.251.402-.402-2.251,1.849-2.654,2.251-.402.402,2.252,7.962,5.547,2.252-.402.402,2.251-1.849,2.654Z"></path>
      <path fill="black" d="M28.106,33.993l-2.285-.109-1.088-1.197.109-2.285,2.285.109,2.393-2.176-6.528-7.179-2.284-.109.109-2.285,2.393-2.176,2.285.108-.109,2.285,7.616,8.376-.109,2.285-4.786,4.352Z"></path>
      <path fill="black" d="M37.163,26.261l-2.188-.665-6.095-11.412.665-2.189,5.706-3.047,2.188.665,6.095,11.412-.665,2.189-5.706,3.047ZM39.919,21.122l-4.571-8.559-2.853,1.524,4.571,8.559,2.853-1.524Z"></path>
      <path fill="black" d="M59.725,19.073l-1.591-1.643,1.643-1.591.157-9.702-.809-.013-1.643,1.591-1.591-1.643.026-1.617,1.643-1.591,8.085.131,1.591,1.643-.026,1.617-1.643,1.591-1.591-1.643-.809-.013-.157,9.702,1.591,1.643-1.643,1.591-3.234-.052Z"></path>
      <path fill="black" d="M69.159,19.357l-1.086-2.013,2.013-1.086,2.779-9.297-1.086-2.013,2.013-1.086,3.099.926-1.853,6.198,3.099.926,1.853-6.198,3.099.926,1.086,2.013-2.013,1.086-2.779,9.297,1.086,2.013-2.013,1.086-3.099-.926,1.853-6.198-3.099-.926-1.853,6.198-3.099-.926Z"></path>
      <path fill="black" d="M82.378,24.067l-.57-2.215,2.215-.57,4.937-8.354-.57-2.215,2.215-.57,2.785,1.646.57,2.215-2.215.57-4.937,8.354.57,2.215-2.215.57-2.785-1.646Z"></path>
      <path fill="black" d="M89.005,27.79l.013-2.287,2.287.014,6.902-6.821.013-2.287,2.287.013,2.274,2.3-3.491,10.272,4.601-4.547.013-2.287,2.287.013,2.274,2.3-.013,2.287-2.287-.013-9.202,9.095-2.274-2.3,3.491-10.272-4.601,4.547-.013,2.287-2.287-.013-2.274-2.3Z"></path>
      <path fill="black" d="M99.124,38.793l.682-2.183,2.183.682,8.595-4.505.682-2.183,2.183.682,3.754,7.162-.682,2.183-1.432.751-2.183-.682.682-2.183-1.501-2.865-8.595,4.505,1.501,2.865,2.865-1.501.682-2.183,2.183.682.751,1.432-.682,2.183-5.73,3.003-2.183-.682-3.754-7.162Z"></path>
      <path fill="black" d="M104.314,49.505l1.2-1.947,1.573-.374,1.947,1.2-1.2,1.947.748,3.147,3.147-.748-1.122-4.72,1.2-1.947,6.294-1.496,1.947,1.2,1.496,6.294-1.2,1.947-1.573.374-1.947-1.2,1.2-1.947-.748-3.147-3.147.748,1.122,4.72-1.2,1.947-6.294,1.496-1.947-1.2-1.496-6.294Z"></path>
    </g>
    <polygon fill="black" points="48.078 14.648 49.272 12.914 51.291 13.514 50.01 11.842 51.205 10.108 49.219 10.809 47.939 9.137 47.992 11.242 46.007 11.943 48.025 12.543 48.078 14.648"></polygon>
  </g>
</svg>